<?xml version="1.0" encoding="UTF-8" standalone="no"?>
<!-- Created with Inkscape (http://www.inkscape.org/) -->

<svg
   xmlns:dc="http://purl.org/dc/elements/1.1/"
   xmlns:cc="http://creativecommons.org/ns#"
   xmlns:rdf="http://www.w3.org/1999/02/22-rdf-syntax-ns#"
   xmlns:svg="http://www.w3.org/2000/svg"
   xmlns="http://www.w3.org/2000/svg"
   version="1.1"
   width="100%"
   height="100%"
   viewBox="0 0 113.92483 113.92306"
   id="svg2"
   xml:space="preserve"><metadata
     id="metadata8"><rdf:RDF><cc:Work
         rdf:about=""><dc:format>image/svg+xml</dc:format><dc:type
           rdf:resource="http://purl.org/dc/dcmitype/StillImage" /><dc:title></dc:title></cc:Work></rdf:RDF></metadata><defs
     id="defs6"><clipPath
       id="clipPath18"><path
         d="m 0,0 2183.73,0 0,912 L 0,912 0,0 z"
         id="path20" /></clipPath><clipPath
       id="clipPath3018"><path
         d="M 230.89193,51.976875 181.14968,2.238125 c -2.86225,-2.86475001 -7.50825,-2.86475001 -10.3745,0 l -10.32862,10.3295 13.10212,13.102625 c 3.04588,-1.028375 6.53713,-0.338875 8.96388,2.088375 2.43937,2.442375 3.124,5.963375 2.06975,9.0195 l 12.628,12.6275 c 3.05512,-1.05275 6.58,-0.372625 9.0195,2.07125 3.41062,3.409625 3.41062,8.9345 0,12.34525 -3.41113,3.411625 -8.936,3.411625 -12.34863,0 -2.5645,-2.5665 -3.19875,-6.3345 -1.89987,-9.49425 l -11.77688,-11.77725 -0.001,30.991125 c 0.8315,0.411625 1.61625,0.961 2.30913,1.650875 3.40962,3.40925 3.40962,8.933125 0,12.34775 -3.41063,3.409125 -8.938,3.409125 -12.34525,0 -3.41013,-3.414625 -3.41013,-8.9385 0,-12.34775 0.84275,-0.84125 1.81787,-1.478 2.85837,-1.90475 l 0,-31.27875 c -1.0405,-0.425375 -2.01412,-1.057625 -2.85837,-1.904875 -2.583,-2.581 -3.20513,-6.372 -1.88038,-9.543875 l -12.9155,-12.918 -34.10647,34.1045 c -2.86572,2.867125 -2.86572,7.513125 0,10.378375 l 49.74172,49.73881 c 2.86375,2.86474 7.50825,2.86474 10.376,0 l 49.50925,-49.50831 c 2.86475,-2.86625 2.86475,-7.513625 0,-10.378875"
         id="path3020"
         style="fill:#f03c2e;fill-opacity:1;fill-rule:nonzero;stroke:none" /></clipPath></defs><g
     transform="matrix(1.25,0,0,-1.25,-0.33805,139.41441)"
     id="g10"><g
       transform="scale(0.1,0.1)"
       id="g12"><g
         id="g14"><g
           clip-path="url(#clipPath18)"
           id="g16" /></g></g></g><g
     transform="translate(-0.33805,25.401798)"
     id="layer1"
     style="display:inline"><g
       transform="translate(-118.77762,-25.476449)"
       clip-path="url(#clipPath3018)"
       id="g3012"><path
         d="m 230.43549,-10.81287 -49.74225,-49.738751 c -2.86224,-2.86475 -7.50825,-2.86475 -10.3745,0 -16.50244,16.503885 -33.00657,33.006075 -49.51022,49.508751 -2.86572,2.8671243 -2.86572,7.5131243 0,10.37837355 L 170.55024,49.074311 c 2.86375,2.86475 7.50825,2.86475 10.376,0 L 230.4355,-0.43399645 c 2.86474,-2.86624925 2.86474,-7.51362425 0,-10.37887355"
         id="path3000"
         style="fill:#ff8080;fill-opacity:1;fill-rule:nonzero;stroke:none" /><path
         d="M 293.39289,51.927587 243.65063,2.1888361 c -2.86224,-2.86474988 -7.50825,-2.86474988 -10.3745,0 -16.50244,16.5038839 -33.00657,33.0060749 -49.51022,49.5087509 -2.86572,2.867125 -2.86572,7.513125 0,10.378374 l 49.74172,49.738819 c 2.86375,2.86476 7.50825,2.86476 10.376,0 l 49.50926,-49.508319 c 2.86474,-2.866249 2.86474,-7.513624 0,-10.378874"
         id="path3006"
         style="fill:#8dd35f;fill-opacity:1;fill-rule:nonzero;stroke:none" /><path
         d="M 167.43559,51.520867 117.69334,1.7821151 c -2.86225,-2.86475 -7.50825,-2.86475 -10.3745,0 C 90.816403,18.286001 74.31227,34.788191 57.80862,51.290867 c -2.86572,2.867125 -2.86572,7.513125 0,10.378374 l 49.74173,49.738809 c 2.86375,2.86475 7.50825,2.86475 10.376,0 L 167.4356,61.899741 c 2.86474,-2.866249 2.86474,-7.513624 0,-10.378874"
         id="path3008"
         style="fill:#80b3ff;fill-opacity:1;fill-rule:nonzero;stroke:none" /><path
         d="M 230.1294,114.11723 180.38716,64.378473 c -2.86224,-2.86475 -7.50826,-2.86475 -10.3745,0 -16.50244,16.503884 -33.00657,33.006074 -49.51021,49.508757 -2.86572,2.86712 -2.86572,7.51312 0,10.37837 l 49.7417,49.73881 c 2.86376,2.86475 7.50825,2.86475 10.376,0 l 49.50926,-49.50831 c 2.86474,-2.86625 2.86474,-7.51362 0,-10.37887"
         id="path3010"
         style="fill:#ffe680;fill-opacity:1;fill-rule:nonzero;stroke:none" /></g></g></svg>