<?xml version="1.0" encoding="UTF-8" standalone="no"?>
<!-- Created with Inkscape (http://www.inkscape.org/) -->

<svg
   xmlns:dc="http://purl.org/dc/elements/1.1/"
   xmlns:cc="http://creativecommons.org/ns#"
   xmlns:rdf="http://www.w3.org/1999/02/22-rdf-syntax-ns#"
   xmlns:svg="http://www.w3.org/2000/svg"
   xmlns="http://www.w3.org/2000/svg"
   version="1.2"
   viewBox="0 0 1060 324"
   id="svg2">
  <defs
     id="defs4">
    <clipPath
       id="clipPath3018">
      <path
         d="M 230.89193,51.976875 181.14968,2.238125 c -2.86225,-2.86475001 -7.50825,-2.86475001 -10.3745,0 l -10.32862,10.3295 13.10212,13.102625 c 3.04588,-1.028375 6.53713,-0.338875 8.96388,2.088375 2.43937,2.442375 3.124,5.963375 2.06975,9.0195 l 12.628,12.6275 c 3.05512,-1.05275 6.58,-0.372625 9.0195,2.07125 3.41062,3.409625 3.41062,8.9345 0,12.34525 -3.41113,3.411625 -8.936,3.411625 -12.34863,0 -2.5645,-2.5665 -3.19875,-6.3345 -1.89987,-9.49425 l -11.77688,-11.77725 -0.001,30.991125 c 0.8315,0.411625 1.61625,0.961 2.30913,1.650875 3.40962,3.40925 3.40962,8.933125 0,12.34775 -3.41063,3.409125 -8.938,3.409125 -12.34525,0 -3.41013,-3.414625 -3.41013,-8.9385 0,-12.34775 0.84275,-0.84125 1.81787,-1.478 2.85837,-1.90475 l 0,-31.27875 c -1.0405,-0.425375 -2.01412,-1.057625 -2.85837,-1.904875 -2.583,-2.581 -3.20513,-6.372 -1.88038,-9.543875 l -12.9155,-12.918 -34.10647,34.1045 c -2.86572,2.867125 -2.86572,7.513125 0,10.378375 l 49.74172,49.73881 c 2.86375,2.86474 7.50825,2.86474 10.376,0 l 49.50925,-49.50831 c 2.86475,-2.86625 2.86475,-7.513625 0,-10.378875"
         id="path3020"
         style="fill:#f03c2e;fill-opacity:1;fill-rule:nonzero;stroke:none" />
    </clipPath>
    <clipPath
       id="clipPath18">
      <path
         d="m 0,0 2183.73,0 0,912 L 0,912 0,0 z"
         id="path20" />
    </clipPath>
  </defs>
  <g
     transform="matrix(6.6924749,0,0,6.6924749,-1393.0671,-1646.862)"
     id="flowRoot3072"
     style="font-size:40px;font-style:normal;font-variant:normal;font-weight:bold;font-stretch:normal;line-height:125%;letter-spacing:0px;word-spacing:0px;fill:#324361;fill-opacity:1;stroke:none;font-family:Adelle Basic Rg;-inkscape-font-specification:Adelle Basic Rg Bold">
    <path
       d="m 209.05078,260.52789 0.42969,-3.24219 7.05078,0 0.3125,2.07032 0.21484,0.0586 c 2.03124,-1.67967 4.16015,-2.51951 6.38672,-2.51953 2.31769,2e-5 3.9453,0.79429 4.88281,2.38281 2.04425,-1.58852 4.19269,-2.38279 6.44532,-2.38281 2.10934,2e-5 3.6165,0.53713 4.52148,1.61133 0.90492,1.07423 1.35739,2.78973 1.35742,5.14648 l 0,10.23438 c -3e-5,0.33854 0.0325,0.55339 0.0977,0.64453 0.0651,0.0912 0.24736,0.15625 0.54687,0.19531 l 1.99219,0.23438 0,3.16406 -8.67187,0 0,-12.92969 c -3e-5,-0.36457 -0.01,-0.68683 -0.0293,-0.9668 -0.0196,-0.27993 -0.0749,-0.58266 -0.16602,-0.9082 -0.0912,-0.3255 -0.21161,-0.59569 -0.36132,-0.81055 -0.14977,-0.21482 -0.36787,-0.39386 -0.6543,-0.53711 -0.28648,-0.14321 -0.63153,-0.21482 -1.03516,-0.21484 -1.05471,2e-5 -2.13543,0.3646 -3.24218,1.09375 0.0781,0.65106 0.11716,1.3021 0.11718,1.95313 l 0,9.08203 c -2e-5,0.35156 0.0325,0.56966 0.0977,0.65429 0.0651,0.0846 0.24737,0.14649 0.54687,0.18555 l 1.60157,0.23438 0,3.16406 -8.28125,0 0,-13.125 c -2e-5,-0.45572 -0.0195,-0.83983 -0.0586,-1.15235 -0.0391,-0.31248 -0.12371,-0.64777 -0.2539,-1.00585 -0.13023,-0.35806 -0.34832,-0.62824 -0.6543,-0.81055 -0.306,-0.18228 -0.69337,-0.27342 -1.16211,-0.27344 -0.57293,2e-5 -1.16212,0.12371 -1.76758,0.37109 -0.60548,0.24742 -1.12305,0.55341 -1.55273,0.91797 l 0,10.83985 c -1e-5,0.33854 0.0293,0.54037 0.0879,0.60547 0.0586,0.0651 0.24413,0.13021 0.55664,0.19531 l 1.97266,0.27344 0,3.16406 -11.09375,0 0,-3.16406 1.79687,-0.27344 c 0.28646,-0.0391 0.46549,-0.10742 0.53711,-0.20508 0.0716,-0.0977 0.10742,-0.29622 0.10742,-0.5957 l 0,-11.75782 c 0,-0.45571 -0.16927,-0.73566 -0.50781,-0.83984 z"
       id="path3893"
       style="fill:#324361;fill-opacity:1" />
    <path
       d="m 245.24219,277.16852 0,-5.80078 4.27734,0.3125 0.39063,2.28515 c 0.0391,0.33855 0.20181,0.54037 0.48828,0.60547 0.80728,0.26042 1.83593,0.39063 3.08593,0.39063 2.21353,0 3.3203,-0.6901 3.32032,-2.07032 -2e-5,-0.72916 -0.30926,-1.26627 -0.92774,-1.61132 -0.6185,-0.34505 -1.5267,-0.62174 -2.72461,-0.83008 -1.99219,-0.36458 -3.43099,-0.73567 -4.3164,-1.11328 -2.27865,-1.04166 -3.42448,-2.85807 -3.4375,-5.44922 0,-1.1979 0.24088,-2.25585 0.72265,-3.17383 0.48177,-0.91795 1.14258,-1.64712 1.98243,-2.1875 0.83983,-0.54035 1.77733,-0.94725 2.8125,-1.2207 1.03514,-0.27342 2.14517,-0.41014 3.33007,-0.41016 1.43228,2e-5 2.84504,0.12372 4.23828,0.37109 1.39322,0.24742 2.42837,0.50784 3.10547,0.78125 l 0,5.80078 -4.27734,-0.27343 -0.39063,-2.08985 c -0.0391,-0.31248 -0.17579,-0.50128 -0.41015,-0.5664 -0.70314,-0.20832 -1.556,-0.31249 -2.5586,-0.3125 -0.98959,10e-6 -1.75782,0.1758 -2.30468,0.52734 -0.54688,0.35158 -0.82032,0.85288 -0.82032,1.50391 0,0.28647 0.0749,0.54689 0.22461,0.78125 0.14974,0.23439 0.33203,0.42644 0.54688,0.57617 0.21484,0.14975 0.52408,0.29298 0.92773,0.42969 0.40364,0.13673 0.76171,0.24741 1.07422,0.33203 0.31249,0.0847 0.73567,0.18556 1.26953,0.30273 0.0911,0.0261 0.1595,0.0423 0.20508,0.0488 0.0456,0.007 0.10741,0.0195 0.18555,0.0391 0.0781,0.0196 0.14973,0.0358 0.21484,0.0488 0.76822,0.16928 1.41601,0.3353 1.94336,0.49805 0.52733,0.16277 1.11652,0.41342 1.76758,0.75195 0.65103,0.33855 1.17511,0.72267 1.57227,1.15234 0.39711,0.4297 0.73566,0.99936 1.01562,1.70899 0.27993,0.70964 0.4199,1.51368 0.41992,2.41211 -2e-5,1.1849 -0.23114,2.22656 -0.69336,3.125 -0.46225,0.89844 -1.10678,1.61784 -1.93359,2.1582 -0.82684,0.54037 -1.77736,0.94401 -2.85156,1.21094 -1.07423,0.26693 -2.26238,0.40039 -3.56446,0.40039 -1.65365,0 -3.27474,-0.16602 -4.86328,-0.49805 -1.58854,-0.33203 -2.60417,-0.64778 -3.04687,-0.94726 z"
       id="path3895"
       style="fill:#324361;fill-opacity:1" />
    <path
       d="m 263.83594,260.52789 0.64453,-3.24219 10.60547,0 0,3.24219 -2.51953,0.3125 4.43359,10.56641 0.27344,0 4.23828,-10.56641 -2.59766,-0.3125 0.52735,-3.24219 8.92578,0 0,3.24219 -1.28907,0.23438 c -0.52085,0.0781 -0.85288,0.306 -0.99609,0.68359 l -8.80859,21.52344 4.16015,0.42969 0,3.20312 -13.32031,0 0,-3.24219 3.125,-0.35156 c 0.24739,-0.013 0.44596,-0.0879 0.5957,-0.22461 0.14974,-0.13672 0.2832,-0.35482 0.40039,-0.6543 l 1.71875,-3.80859 -7.63671,-16.71875 c -0.0781,-0.23436 -0.17253,-0.39061 -0.28321,-0.46875 -0.11068,-0.0781 -0.29622,-0.14972 -0.55664,-0.21484 z"
       id="path3897"
       style="fill:#324361;fill-opacity:1" />
    <path
       d="m 289.92969,277.16852 0,-5.80078 4.27734,0.3125 0.39063,2.28515 c 0.039,0.33855 0.20181,0.54037 0.48828,0.60547 0.80728,0.26042 1.83593,0.39063 3.08593,0.39063 2.21353,0 3.3203,-0.6901 3.32032,-2.07032 -2e-5,-0.72916 -0.30926,-1.26627 -0.92774,-1.61132 -0.6185,-0.34505 -1.5267,-0.62174 -2.72461,-0.83008 -1.99219,-0.36458 -3.43099,-0.73567 -4.3164,-1.11328 -2.27865,-1.04166 -3.42448,-2.85807 -3.4375,-5.44922 0,-1.1979 0.24088,-2.25585 0.72265,-3.17383 0.48177,-0.91795 1.14258,-1.64712 1.98243,-2.1875 0.83983,-0.54035 1.77733,-0.94725 2.8125,-1.2207 1.03514,-0.27342 2.14517,-0.41014 3.33007,-0.41016 1.43228,2e-5 2.84504,0.12372 4.23828,0.37109 1.39322,0.24742 2.42837,0.50784 3.10547,0.78125 l 0,5.80078 -4.27734,-0.27343 -0.39063,-2.08985 c -0.0391,-0.31248 -0.17579,-0.50128 -0.41015,-0.5664 -0.70314,-0.20832 -1.556,-0.31249 -2.5586,-0.3125 -0.98959,10e-6 -1.75782,0.1758 -2.30468,0.52734 -0.54688,0.35158 -0.82032,0.85288 -0.82032,1.50391 0,0.28647 0.0749,0.54689 0.22461,0.78125 0.14974,0.23439 0.33203,0.42644 0.54688,0.57617 0.21484,0.14975 0.52408,0.29298 0.92773,0.42969 0.40364,0.13673 0.76171,0.24741 1.07422,0.33203 0.31249,0.0847 0.73567,0.18556 1.26953,0.30273 0.0911,0.0261 0.1595,0.0423 0.20508,0.0488 0.0456,0.007 0.10741,0.0195 0.18555,0.0391 0.0781,0.0196 0.14973,0.0358 0.21484,0.0488 0.76822,0.16928 1.41601,0.3353 1.94336,0.49805 0.52733,0.16277 1.11652,0.41342 1.76758,0.75195 0.65103,0.33855 1.17511,0.72267 1.57227,1.15234 0.39711,0.4297 0.73566,0.99936 1.01562,1.70899 0.27993,0.70964 0.4199,1.51368 0.41992,2.41211 -2e-5,1.1849 -0.23114,2.22656 -0.69336,3.125 -0.46225,0.89844 -1.10678,1.61784 -1.93359,2.1582 -0.82684,0.54037 -1.77736,0.94401 -2.85156,1.21094 -1.07423,0.26693 -2.26238,0.40039 -3.56446,0.40039 -1.65365,0 -3.27474,-0.16602 -4.86328,-0.49805 -1.58854,-0.33203 -2.60417,-0.64778 -3.04687,-0.94726 z"
       id="path3899"
       style="fill:#324361;fill-opacity:1" />
    <path
       d="m 309.59766,263.57477 c 0,-2.16144 0.31249,-4.14386 0.9375,-5.94727 0.62499,-1.80336 1.54622,-3.37563 2.76367,-4.7168 1.21744,-1.34111 2.7897,-2.38604 4.71679,-3.13476 1.92708,-0.74867 4.12109,-1.12302 6.58204,-1.12305 1.56248,3e-5 3.17381,0.19534 4.83398,0.58594 1.66013,0.39065 3.06313,0.96357 4.20898,1.71875 l 0,7.55859 -4.43359,-0.3125 -0.60547,-3.59375 c -0.0521,-0.27341 -0.12697,-0.46547 -0.22461,-0.57617 -0.0977,-0.11065 -0.23765,-0.18552 -0.41992,-0.22461 -1.27606,-0.35154 -2.50002,-0.52732 -3.67187,-0.52734 -2.56512,2e-5 -4.58009,0.91148 -6.04493,2.73437 -1.46485,1.82294 -2.19727,4.30992 -2.19726,7.46094 -1e-5,3.35939 0.71614,5.95379 2.14844,7.7832 1.43228,1.82944 3.55467,2.74415 6.36718,2.74414 1.14582,10e-6 2.25259,-0.0911 3.32032,-0.27343 0.23435,-0.0391 0.40037,-0.10742 0.49804,-0.20508 0.0976,-0.0976 0.14647,-0.27018 0.14649,-0.51758 l 0,-5.23437 -4.4336,0 0.54688,-3.61329 12.28515,0 0,3.20313 -1.64062,0.15625 c -0.24742,0.026 -0.41669,0.0781 -0.50781,0.15625 -0.0912,0.0781 -0.13675,0.21485 -0.13672,0.41016 l 0,8.59375 c -2.72138,1.28906 -6.1719,1.93359 -10.35156,1.93359 -2.13543,0 -4.03973,-0.2474 -5.71289,-0.74219 -1.67319,-0.49479 -3.06642,-1.18164 -4.17969,-2.06054 -1.11329,-0.87891 -2.03451,-1.95638 -2.76367,-3.23243 -0.72917,-1.27603 -1.25001,-2.65298 -1.5625,-4.13086 -0.31251,-1.47785 -0.46875,-3.1022 -0.46875,-4.87304 z"
       id="path3901"
       style="fill:#324361;fill-opacity:1" />
    <path
       d="m 338.03516,278.12555 0,-3.16406 2.03125,-0.27344 c 0.28645,-0.0391 0.46549,-0.10742 0.53711,-0.20508 0.0716,-0.0977 0.10741,-0.29622 0.10742,-0.5957 l 0,-11.75782 c -10e-6,-0.45571 -0.16928,-0.73566 -0.50782,-0.83984 l -2.16796,-0.76172 0.42968,-3.24219 8.28125,0 0,16.60157 c -10e-6,0.32552 0.0326,0.5306 0.0977,0.61523 0.0651,0.0846 0.24739,0.14649 0.54687,0.18555 l 2.05079,0.27344 0,3.16406 z m 1.5625,-27.63672 c -1e-5,-1.13278 0.31249,-2.00192 0.9375,-2.60742 0.62499,-0.60544 1.51041,-0.90817 2.65625,-0.90821 1.17186,4e-5 2.07356,0.30277 2.70507,0.90821 0.63151,0.6055 0.94726,1.47464 0.94727,2.60742 -10e-6,1.14586 -0.31902,2.03128 -0.95703,2.65625 -0.63803,0.62502 -1.53647,0.93752 -2.69531,0.9375 -1.14584,2e-5 -2.03126,-0.31248 -2.65625,-0.9375 -0.62501,-0.62497 -0.93751,-1.51039 -0.9375,-2.65625 z"
       id="path3903"
       style="fill:#324361;fill-opacity:1" />
    <path
       d="m 350.20312,261.28961 0,-3.55469 c 1.74479,-0.19529 3.02083,-0.78448 3.82813,-1.76757 0.80729,-0.98305 1.32161,-2.56834 1.54297,-4.75586 l 3.78906,0 0,5.68359 c -10e-6,0.15627 0.0195,0.26044 0.0586,0.3125 0.0391,0.0521 0.1302,0.0781 0.27344,0.0781 l 5.64453,0 0,4.00391 -5.97656,0 0,9.55078 c -1e-5,1.21095 0.19205,2.06055 0.57617,2.54883 0.38411,0.48829 1.10351,0.73243 2.15821,0.73242 0.98957,10e-6 2.07029,-0.21484 3.24218,-0.64453 l 1.07422,3.53516 c -2.18751,1.06771 -4.36199,1.60156 -6.52344,1.60156 -2.35677,0 -4.03971,-0.50456 -5.04882,-1.51367 -1.00912,-1.00911 -1.51368,-2.65299 -1.51368,-4.93164 l 0,-10.48828 c 0,-0.10415 -0.003,-0.17577 -0.01,-0.21485 -0.007,-0.039 -0.0326,-0.0781 -0.0781,-0.11719 -0.0456,-0.039 -0.12044,-0.0586 -0.22461,-0.0586 z"
       id="path3905"
       style="fill:#324361;fill-opacity:1" />
  </g>
  <g
     transform="matrix(6.6924749,0,0,6.6924749,-1399.0671,-1652.862)"
     id="flowRoot3072-1"
     style="font-size:40px;font-style:normal;font-variant:normal;font-weight:bold;font-stretch:normal;line-height:125%;letter-spacing:0px;word-spacing:0px;fill:#bacbdd;fill-opacity:1;stroke:none;font-family:Adelle Basic Rg;-inkscape-font-specification:Adelle Basic Rg Bold">
    <path
       d="m 209.05078,260.52789 0.42969,-3.24219 7.05078,0 0.3125,2.07032 0.21484,0.0586 c 2.03124,-1.67967 4.16015,-2.51951 6.38672,-2.51953 2.31769,2e-5 3.9453,0.79429 4.88281,2.38281 2.04425,-1.58852 4.19269,-2.38279 6.44532,-2.38281 2.10934,2e-5 3.6165,0.53713 4.52148,1.61133 0.90492,1.07423 1.35739,2.78973 1.35742,5.14648 l 0,10.23438 c -3e-5,0.33854 0.0325,0.55339 0.0977,0.64453 0.0651,0.0912 0.24736,0.15625 0.54687,0.19531 l 1.99219,0.23438 0,3.16406 -8.67187,0 0,-12.92969 c -3e-5,-0.36457 -0.01,-0.68683 -0.0293,-0.9668 -0.0196,-0.27993 -0.0749,-0.58266 -0.16602,-0.9082 -0.0912,-0.3255 -0.21161,-0.59569 -0.36132,-0.81055 -0.14977,-0.21482 -0.36787,-0.39386 -0.6543,-0.53711 -0.28648,-0.14321 -0.63153,-0.21482 -1.03516,-0.21484 -1.05471,2e-5 -2.13543,0.3646 -3.24218,1.09375 0.0781,0.65106 0.11716,1.3021 0.11718,1.95313 l 0,9.08203 c -2e-5,0.35156 0.0325,0.56966 0.0977,0.65429 0.0651,0.0846 0.24737,0.14649 0.54687,0.18555 l 1.60157,0.23438 0,3.16406 -8.28125,0 0,-13.125 c -2e-5,-0.45572 -0.0195,-0.83983 -0.0586,-1.15235 -0.0391,-0.31248 -0.12371,-0.64777 -0.2539,-1.00585 -0.13023,-0.35806 -0.34832,-0.62824 -0.6543,-0.81055 -0.306,-0.18228 -0.69337,-0.27342 -1.16211,-0.27344 -0.57293,2e-5 -1.16212,0.12371 -1.76758,0.37109 -0.60548,0.24742 -1.12305,0.55341 -1.55273,0.91797 l 0,10.83985 c -1e-5,0.33854 0.0293,0.54037 0.0879,0.60547 0.0586,0.0651 0.24413,0.13021 0.55664,0.19531 l 1.97266,0.27344 0,3.16406 -11.09375,0 0,-3.16406 1.79687,-0.27344 c 0.28646,-0.0391 0.46549,-0.10742 0.53711,-0.20508 0.0716,-0.0977 0.10742,-0.29622 0.10742,-0.5957 l 0,-11.75782 c 0,-0.45571 -0.16927,-0.73566 -0.50781,-0.83984 z"
       id="path3878"
       style="fill:#bacbdd;fill-opacity:1" />
    <path
       d="m 245.24219,277.16852 0,-5.80078 4.27734,0.3125 0.39063,2.28515 c 0.0391,0.33855 0.20181,0.54037 0.48828,0.60547 0.80728,0.26042 1.83593,0.39063 3.08593,0.39063 2.21353,0 3.3203,-0.6901 3.32032,-2.07032 -2e-5,-0.72916 -0.30926,-1.26627 -0.92774,-1.61132 -0.6185,-0.34505 -1.5267,-0.62174 -2.72461,-0.83008 -1.99219,-0.36458 -3.43099,-0.73567 -4.3164,-1.11328 -2.27865,-1.04166 -3.42448,-2.85807 -3.4375,-5.44922 0,-1.1979 0.24088,-2.25585 0.72265,-3.17383 0.48177,-0.91795 1.14258,-1.64712 1.98243,-2.1875 0.83983,-0.54035 1.77733,-0.94725 2.8125,-1.2207 1.03514,-0.27342 2.14517,-0.41014 3.33007,-0.41016 1.43228,2e-5 2.84504,0.12372 4.23828,0.37109 1.39322,0.24742 2.42837,0.50784 3.10547,0.78125 l 0,5.80078 -4.27734,-0.27343 -0.39063,-2.08985 c -0.0391,-0.31248 -0.17579,-0.50128 -0.41015,-0.5664 -0.70314,-0.20832 -1.556,-0.31249 -2.5586,-0.3125 -0.98959,10e-6 -1.75782,0.1758 -2.30468,0.52734 -0.54688,0.35158 -0.82032,0.85288 -0.82032,1.50391 0,0.28647 0.0749,0.54689 0.22461,0.78125 0.14974,0.23439 0.33203,0.42644 0.54688,0.57617 0.21484,0.14975 0.52408,0.29298 0.92773,0.42969 0.40364,0.13673 0.76171,0.24741 1.07422,0.33203 0.31249,0.0847 0.73567,0.18556 1.26953,0.30273 0.0911,0.0261 0.1595,0.0423 0.20508,0.0488 0.0456,0.007 0.10741,0.0195 0.18555,0.0391 0.0781,0.0196 0.14973,0.0358 0.21484,0.0488 0.76822,0.16928 1.41601,0.3353 1.94336,0.49805 0.52733,0.16277 1.11652,0.41342 1.76758,0.75195 0.65103,0.33855 1.17511,0.72267 1.57227,1.15234 0.39711,0.4297 0.73566,0.99936 1.01562,1.70899 0.27993,0.70964 0.4199,1.51368 0.41992,2.41211 -2e-5,1.1849 -0.23114,2.22656 -0.69336,3.125 -0.46225,0.89844 -1.10678,1.61784 -1.93359,2.1582 -0.82684,0.54037 -1.77736,0.94401 -2.85156,1.21094 -1.07423,0.26693 -2.26238,0.40039 -3.56446,0.40039 -1.65365,0 -3.27474,-0.16602 -4.86328,-0.49805 -1.58854,-0.33203 -2.60417,-0.64778 -3.04687,-0.94726 z"
       id="path3880"
       style="fill:#bacbdd;fill-opacity:1" />
    <path
       d="m 263.83594,260.52789 0.64453,-3.24219 10.60547,0 0,3.24219 -2.51953,0.3125 4.43359,10.56641 0.27344,0 4.23828,-10.56641 -2.59766,-0.3125 0.52735,-3.24219 8.92578,0 0,3.24219 -1.28907,0.23438 c -0.52085,0.0781 -0.85288,0.306 -0.99609,0.68359 l -8.80859,21.52344 4.16015,0.42969 0,3.20312 -13.32031,0 0,-3.24219 3.125,-0.35156 c 0.24739,-0.013 0.44596,-0.0879 0.5957,-0.22461 0.14974,-0.13672 0.2832,-0.35482 0.40039,-0.6543 l 1.71875,-3.80859 -7.63671,-16.71875 c -0.0781,-0.23436 -0.17253,-0.39061 -0.28321,-0.46875 -0.11068,-0.0781 -0.29622,-0.14972 -0.55664,-0.21484 z"
       id="path3882"
       style="fill:#bacbdd;fill-opacity:1" />
    <path
       d="m 289.92969,277.16852 0,-5.80078 4.27734,0.3125 0.39063,2.28515 c 0.039,0.33855 0.20181,0.54037 0.48828,0.60547 0.80728,0.26042 1.83593,0.39063 3.08593,0.39063 2.21353,0 3.3203,-0.6901 3.32032,-2.07032 -2e-5,-0.72916 -0.30926,-1.26627 -0.92774,-1.61132 -0.6185,-0.34505 -1.5267,-0.62174 -2.72461,-0.83008 -1.99219,-0.36458 -3.43099,-0.73567 -4.3164,-1.11328 -2.27865,-1.04166 -3.42448,-2.85807 -3.4375,-5.44922 0,-1.1979 0.24088,-2.25585 0.72265,-3.17383 0.48177,-0.91795 1.14258,-1.64712 1.98243,-2.1875 0.83983,-0.54035 1.77733,-0.94725 2.8125,-1.2207 1.03514,-0.27342 2.14517,-0.41014 3.33007,-0.41016 1.43228,2e-5 2.84504,0.12372 4.23828,0.37109 1.39322,0.24742 2.42837,0.50784 3.10547,0.78125 l 0,5.80078 -4.27734,-0.27343 -0.39063,-2.08985 c -0.0391,-0.31248 -0.17579,-0.50128 -0.41015,-0.5664 -0.70314,-0.20832 -1.556,-0.31249 -2.5586,-0.3125 -0.98959,10e-6 -1.75782,0.1758 -2.30468,0.52734 -0.54688,0.35158 -0.82032,0.85288 -0.82032,1.50391 0,0.28647 0.0749,0.54689 0.22461,0.78125 0.14974,0.23439 0.33203,0.42644 0.54688,0.57617 0.21484,0.14975 0.52408,0.29298 0.92773,0.42969 0.40364,0.13673 0.76171,0.24741 1.07422,0.33203 0.31249,0.0847 0.73567,0.18556 1.26953,0.30273 0.0911,0.0261 0.1595,0.0423 0.20508,0.0488 0.0456,0.007 0.10741,0.0195 0.18555,0.0391 0.0781,0.0196 0.14973,0.0358 0.21484,0.0488 0.76822,0.16928 1.41601,0.3353 1.94336,0.49805 0.52733,0.16277 1.11652,0.41342 1.76758,0.75195 0.65103,0.33855 1.17511,0.72267 1.57227,1.15234 0.39711,0.4297 0.73566,0.99936 1.01562,1.70899 0.27993,0.70964 0.4199,1.51368 0.41992,2.41211 -2e-5,1.1849 -0.23114,2.22656 -0.69336,3.125 -0.46225,0.89844 -1.10678,1.61784 -1.93359,2.1582 -0.82684,0.54037 -1.77736,0.94401 -2.85156,1.21094 -1.07423,0.26693 -2.26238,0.40039 -3.56446,0.40039 -1.65365,0 -3.27474,-0.16602 -4.86328,-0.49805 -1.58854,-0.33203 -2.60417,-0.64778 -3.04687,-0.94726 z"
       id="path3884"
       style="fill:#bacbdd;fill-opacity:1" />
    <path
       d="m 309.59766,263.57477 c 0,-2.16144 0.31249,-4.14386 0.9375,-5.94727 0.62499,-1.80336 1.54622,-3.37563 2.76367,-4.7168 1.21744,-1.34111 2.7897,-2.38604 4.71679,-3.13476 1.92708,-0.74867 4.12109,-1.12302 6.58204,-1.12305 1.56248,3e-5 3.17381,0.19534 4.83398,0.58594 1.66013,0.39065 3.06313,0.96357 4.20898,1.71875 l 0,7.55859 -4.43359,-0.3125 -0.60547,-3.59375 c -0.0521,-0.27341 -0.12697,-0.46547 -0.22461,-0.57617 -0.0977,-0.11065 -0.23765,-0.18552 -0.41992,-0.22461 -1.27606,-0.35154 -2.50002,-0.52732 -3.67187,-0.52734 -2.56512,2e-5 -4.58009,0.91148 -6.04493,2.73437 -1.46485,1.82294 -2.19727,4.30992 -2.19726,7.46094 -1e-5,3.35939 0.71614,5.95379 2.14844,7.7832 1.43228,1.82944 3.55467,2.74415 6.36718,2.74414 1.14582,10e-6 2.25259,-0.0911 3.32032,-0.27343 0.23435,-0.0391 0.40037,-0.10742 0.49804,-0.20508 0.0976,-0.0976 0.14647,-0.27018 0.14649,-0.51758 l 0,-5.23437 -4.4336,0 0.54688,-3.61329 12.28515,0 0,3.20313 -1.64062,0.15625 c -0.24742,0.026 -0.41669,0.0781 -0.50781,0.15625 -0.0912,0.0781 -0.13675,0.21485 -0.13672,0.41016 l 0,8.59375 c -2.72138,1.28906 -6.1719,1.93359 -10.35156,1.93359 -2.13543,0 -4.03973,-0.2474 -5.71289,-0.74219 -1.67319,-0.49479 -3.06642,-1.18164 -4.17969,-2.06054 -1.11329,-0.87891 -2.03451,-1.95638 -2.76367,-3.23243 -0.72917,-1.27603 -1.25001,-2.65298 -1.5625,-4.13086 -0.31251,-1.47785 -0.46875,-3.1022 -0.46875,-4.87304 z"
       id="path3886"
       style="fill:#bacbdd;fill-opacity:1" />
    <path
       d="m 338.03516,278.12555 0,-3.16406 2.03125,-0.27344 c 0.28645,-0.0391 0.46549,-0.10742 0.53711,-0.20508 0.0716,-0.0977 0.10741,-0.29622 0.10742,-0.5957 l 0,-11.75782 c -10e-6,-0.45571 -0.16928,-0.73566 -0.50782,-0.83984 l -2.16796,-0.76172 0.42968,-3.24219 8.28125,0 0,16.60157 c -10e-6,0.32552 0.0326,0.5306 0.0977,0.61523 0.0651,0.0846 0.24739,0.14649 0.54687,0.18555 l 2.05079,0.27344 0,3.16406 z m 1.5625,-27.63672 c -1e-5,-1.13278 0.31249,-2.00192 0.9375,-2.60742 0.62499,-0.60544 1.51041,-0.90817 2.65625,-0.90821 1.17186,4e-5 2.07356,0.30277 2.70507,0.90821 0.63151,0.6055 0.94726,1.47464 0.94727,2.60742 -10e-6,1.14586 -0.31902,2.03128 -0.95703,2.65625 -0.63803,0.62502 -1.53647,0.93752 -2.69531,0.9375 -1.14584,2e-5 -2.03126,-0.31248 -2.65625,-0.9375 -0.62501,-0.62497 -0.93751,-1.51039 -0.9375,-2.65625 z"
       id="path3888"
       style="fill:#bacbdd;fill-opacity:1" />
    <path
       d="m 350.20312,261.28961 0,-3.55469 c 1.74479,-0.19529 3.02083,-0.78448 3.82813,-1.76757 0.80729,-0.98305 1.32161,-2.56834 1.54297,-4.75586 l 3.78906,0 0,5.68359 c -10e-6,0.15627 0.0195,0.26044 0.0586,0.3125 0.0391,0.0521 0.1302,0.0781 0.27344,0.0781 l 5.64453,0 0,4.00391 -5.97656,0 0,9.55078 c -1e-5,1.21095 0.19205,2.06055 0.57617,2.54883 0.38411,0.48829 1.10351,0.73243 2.15821,0.73242 0.98957,10e-6 2.07029,-0.21484 3.24218,-0.64453 l 1.07422,3.53516 c -2.18751,1.06771 -4.36199,1.60156 -6.52344,1.60156 -2.35677,0 -4.03971,-0.50456 -5.04882,-1.51367 -1.00912,-1.00911 -1.51368,-2.65299 -1.51368,-4.93164 l 0,-10.48828 c 0,-0.10415 -0.003,-0.17577 -0.01,-0.21485 -0.007,-0.039 -0.0326,-0.0781 -0.0781,-0.11719 -0.0456,-0.039 -0.12044,-0.0586 -0.22461,-0.0586 z"
       id="path3890"
       style="fill:#bacbdd;fill-opacity:1" />
  </g>
  <metadata
     id="metadata3107">
    <rdf:RDF>
      <cc:Work
         rdf:about="">
        <dc:title></dc:title>
        <dc:format>image/svg+xml</dc:format>
        <dc:type
           rdf:resource="http://purl.org/dc/dcmitype/StillImage" />
      </cc:Work>
    </rdf:RDF>
  </metadata>
</svg>
