<?xml version="1.0" encoding="UTF-8" standalone="no"?>
<!-- Created with Inkscape (http://www.inkscape.org/) -->

<svg
   xmlns:dc="http://purl.org/dc/elements/1.1/"
   xmlns:cc="http://creativecommons.org/ns#"
   xmlns:rdf="http://www.w3.org/1999/02/22-rdf-syntax-ns#"
   xmlns:svg="http://www.w3.org/2000/svg"
   xmlns="http://www.w3.org/2000/svg"
   xmlns:sodipodi="http://sodipodi.sourceforge.net/DTD/sodipodi-0.dtd"
   xmlns:inkscape="http://www.inkscape.org/namespaces/inkscape"
   version="1.2"
   viewBox="0 0 369.98266 296.50063"
   id="svg2"
   inkscape:version="0.48.2 r9819"
   width="100%"
   height="100%"
   sodipodi:docname="details_contribute.svg"
   inkscape:export-filename="/Users/dscho/git/3rdparty/git-for-windows.github.io/img/details_contribute.png"
   inkscape:export-xdpi="26.265989"
   inkscape:export-ydpi="26.265989">
  <sodipodi:namedview
     pagecolor="#ffffff"
     bordercolor="#666666"
     borderopacity="1"
     objecttolerance="10"
     gridtolerance="10"
     guidetolerance="10"
     inkscape:pageopacity="0"
     inkscape:pageshadow="2"
     inkscape:window-width="721"
     inkscape:window-height="480"
     id="namedview25"
     showgrid="false"
     fit-margin-top="0"
     fit-margin-left="0"
     fit-margin-right="0"
     fit-margin-bottom="0"
     inkscape:zoom="0.67893981"
     inkscape:cx="178.99134"
     inkscape:cy="152.25031"
     inkscape:window-x="577"
     inkscape:window-y="133"
     inkscape:window-maximized="0"
     inkscape:current-layer="svg2" />
  <defs
     id="defs4">
    <clipPath
       id="clipPath3018">
      <path
         d="M 230.89193,51.976875 181.14968,2.238125 c -2.86225,-2.86475001 -7.50825,-2.86475001 -10.3745,0 l -10.32862,10.3295 13.10212,13.102625 c 3.04588,-1.028375 6.53713,-0.338875 8.96388,2.088375 2.43937,2.442375 3.124,5.963375 2.06975,9.0195 l 12.628,12.6275 c 3.05512,-1.05275 6.58,-0.372625 9.0195,2.07125 3.41062,3.409625 3.41062,8.9345 0,12.34525 -3.41113,3.411625 -8.936,3.411625 -12.34863,0 -2.5645,-2.5665 -3.19875,-6.3345 -1.89987,-9.49425 l -11.77688,-11.77725 -0.001,30.991125 c 0.8315,0.411625 1.61625,0.961 2.30913,1.650875 3.40962,3.40925 3.40962,8.933125 0,12.34775 -3.41063,3.409125 -8.938,3.409125 -12.34525,0 -3.41013,-3.414625 -3.41013,-8.9385 0,-12.34775 0.84275,-0.84125 1.81787,-1.478 2.85837,-1.90475 l 0,-31.27875 c -1.0405,-0.425375 -2.01412,-1.057625 -2.85837,-1.904875 -2.583,-2.581 -3.20513,-6.372 -1.88038,-9.543875 l -12.9155,-12.918 -34.10647,34.1045 c -2.86572,2.867125 -2.86572,7.513125 0,10.378375 l 49.74172,49.73881 c 2.86375,2.86474 7.50825,2.86474 10.376,0 l 49.50925,-49.50831 c 2.86475,-2.86625 2.86475,-7.513625 0,-10.378875"
         id="path3020"
         style="fill:#f03c2e;fill-opacity:1;fill-rule:nonzero;stroke:none"
         inkscape:connector-curvature="0" />
    </clipPath>
    <clipPath
       id="clipPath18">
      <path
         d="m 0,0 2183.73,0 0,912 L 0,912 0,0 z"
         id="path20"
         inkscape:connector-curvature="0" />
    </clipPath>
    <filter
       inkscape:collect="always"
       id="filter3802"
       color-interpolation-filters="sRGB">
      <feGaussianBlur
         inkscape:collect="always"
         stdDeviation="3.5722046"
         id="feGaussianBlur3804" />
    </filter>
  </defs>
  <g
     transform="matrix(1.3053273,0,0,1.3053273,-197.94532,-293.87784)"
     id="g3016"
     style="fill:#616161;fill-opacity:1;filter:url(#filter3802)">
    <text
       xml:space="preserve"
       style="font-size:40px;font-style:normal;font-weight:normal;line-height:125%;letter-spacing:0px;word-spacing:0px;fill:#616161;fill-opacity:1;stroke:none;font-family:Sans"
       x="159.60226"
       y="393.26135"
       id="text3018"
       sodipodi:linespacing="125%"><tspan
         sodipodi:role="line"
         id="tspan3020"
         x="159.60226"
         y="393.26135"
         style="font-size:210px;font-style:normal;font-variant:normal;font-weight:bold;font-stretch:normal;text-align:start;line-height:125%;writing-mode:lr-tb;text-anchor:start;fill:#616161;fill-opacity:1;font-family:Open Sans;-inkscape-font-specification:Open Sans Bold">git</tspan></text>
    <text
       sodipodi:linespacing="125%"
       id="text3022"
       y="433.48862"
       x="300.03409"
       style="font-size:40px;font-style:normal;font-weight:normal;line-height:125%;letter-spacing:0px;word-spacing:0px;fill:#616161;fill-opacity:1;stroke:none;font-family:Sans"
       xml:space="preserve"><tspan
         style="font-size:48px;font-style:normal;font-variant:normal;font-weight:bold;font-stretch:normal;text-align:start;line-height:125%;writing-mode:lr-tb;text-anchor:start;fill:#616161;fill-opacity:1;font-family:Open Sans;-inkscape-font-specification:Open Sans Bold"
         y="433.48862"
         x="300.03409"
         id="tspan3024"
         sodipodi:role="line">SDK</tspan></text>
  </g>
  <g
     id="g3010"
     transform="matrix(1.3053273,0,0,1.3053273,-203.94532,-297.87784)">
    <text
       sodipodi:linespacing="125%"
       id="text3002"
       y="393.26135"
       x="159.60226"
       style="font-size:40px;font-style:normal;font-weight:normal;line-height:125%;letter-spacing:0px;word-spacing:0px;fill:#000000;fill-opacity:1;stroke:none;font-family:Sans"
       xml:space="preserve"><tspan
         style="font-size:210px;font-style:normal;font-variant:normal;font-weight:bold;font-stretch:normal;text-align:start;line-height:125%;writing-mode:lr-tb;text-anchor:start;font-family:Open Sans;-inkscape-font-specification:Open Sans Bold"
         y="393.26135"
         x="159.60226"
         id="tspan3004"
         sodipodi:role="line">git</tspan></text>
    <text
       xml:space="preserve"
       style="font-size:40px;font-style:normal;font-weight:normal;line-height:125%;letter-spacing:0px;word-spacing:0px;fill:#000000;fill-opacity:1;stroke:none;font-family:Sans"
       x="300.03409"
       y="433.48862"
       id="text3006"
       sodipodi:linespacing="125%"><tspan
         sodipodi:role="line"
         id="tspan3008"
         x="300.03409"
         y="433.48862"
         style="font-size:48px;font-style:normal;font-variant:normal;font-weight:bold;font-stretch:normal;text-align:start;line-height:125%;writing-mode:lr-tb;text-anchor:start;font-family:Open Sans;-inkscape-font-specification:Open Sans Bold">SDK</tspan></text>
  </g>
  <metadata
     id="metadata3107">
    <rdf:RDF>
      <cc:Work
         rdf:about="">
        <dc:title></dc:title>
        <dc:format>image/svg+xml</dc:format>
        <dc:type
           rdf:resource="http://purl.org/dc/dcmitype/StillImage" />
      </cc:Work>
    </rdf:RDF>
  </metadata>
</svg>
